<svg id="Icons" xmlns="http://www.w3.org/2000/svg" viewBox="0 0 512 512"><defs><style>.cls-1{fill:#efb732;}.cls-2{fill:#fbdb58;}.cls-3{fill:#e52e44;}.cls-4{fill:#fa4654;}.cls-5{fill:#fb626e;}.cls-6{fill:#faefdc;}.cls-7{fill:#f39e22;}.cls-8{fill:#f9c744;}.cls-9{fill:#c44a1a;}.cls-10{fill:#fff;}</style></defs><title>019-beer-export</title><circle class="cls-1" cx="256" cy="256" r="256"/><circle class="cls-2" cx="256" cy="256" r="195.26"/><path class="cls-3" d="M395.48,256c0-9.84,14.69-21,12.85-30.29-1.89-9.59-19.77-14.28-23.43-23.1-3.72-9,5.57-24.92.23-32.9s-23.69-5.52-30.5-12.34-4.31-25.12-12.35-30.5-23.92,3.95-32.89.23c-8.82-3.66-13.51-21.54-23.1-23.43-9.3-1.84-20.45,12.85-30.29,12.85s-21-14.69-30.29-12.85c-9.59,1.89-14.28,19.77-23.1,23.43-9,3.72-24.92-5.57-32.9-.23s-5.52,23.69-12.34,30.5-25.12,4.31-30.5,12.35,3.95,23.92.23,32.89c-3.66,8.82-21.54,13.51-23.43,23.1-1.84,9.3,12.85,20.45,12.85,30.29s-14.69,21-12.85,30.29c1.89,9.59,19.77,14.28,23.43,23.1,3.72,9-5.57,24.92-.23,32.9s23.69,5.52,30.5,12.34,4.31,25.12,12.35,30.5,23.92-3.95,32.89-.23c8.82,3.66,13.51,21.54,23.1,23.43,9.3,1.84,20.45-12.85,30.29-12.85s21,14.69,30.29,12.85c9.59-1.89,14.28-19.77,23.1-23.43,9-3.72,24.92,5.57,32.9.23s5.52-23.69,12.34-30.5,25.12-4.31,30.5-12.35-3.95-23.92-.23-32.89c3.66-8.82,21.54-13.51,23.43-23.1C410.17,277,395.48,265.84,395.48,256Z"/><path class="cls-4" d="M388.51,278.5,284.24,256.25l104.65-20.38a5.65,5.65,0,1,0-2.16-11.09L283,245l88.27-58.08a5.64,5.64,0,1,0-6.2-9.43l-88.68,58.33,59.32-88a5.64,5.64,0,0,0-9.36-6.31l-59.23,87.89,21-103.89a5.65,5.65,0,1,0-11.07-2.23L256.1,227,235.87,123.11a5.65,5.65,0,1,0-11.09,2.16L245.16,229.9l-59.71-88.31a5.65,5.65,0,1,0-9.35,6.33L235,235.05l-87.23-58.78a5.64,5.64,0,0,0-6.31,9.36l87.2,58.77L125.84,222.46a5.64,5.64,0,1,0-2.35,11l104.27,22.25L123.11,276.13a5.65,5.65,0,0,0,1.07,11.19,5.82,5.82,0,0,0,1.09-.1L229,267l-88.28,58.08a5.64,5.64,0,1,0,6.2,9.43l88.68-58.33-59.32,88a5.64,5.64,0,1,0,9.36,6.31l59.23-87.89-21,103.89a5.65,5.65,0,0,0,4.41,6.65,6.27,6.27,0,0,0,1.13.11,5.65,5.65,0,0,0,5.53-4.53L255.9,285l20.23,103.87a5.65,5.65,0,0,0,5.54,4.57,5.82,5.82,0,0,0,1.09-.1,5.66,5.66,0,0,0,4.46-6.63L266.84,282.11l59.71,88.3a5.65,5.65,0,1,0,9.35-6.33L277,277l87.23,58.78a5.54,5.54,0,0,0,3.15,1,5.65,5.65,0,0,0,3.16-10.33L283.31,267.6l102.85,21.94a6,6,0,0,0,1.18.12,5.64,5.64,0,0,0,1.17-11.16Z"/><circle class="cls-4" cx="256" cy="256" r="117.08"/><path class="cls-5" d="M333.65,213.84a13.05,13.05,0,0,1-9.14,3c-8.55-.16-19.53-6.15-28.4-16.33-6.48-7.43-10.58-15.66-11.94-22.87-1.28-6.82-.11-12.7,3.84-16.14,8.13-7.1,24.93-1.11,37.55,13.35S341.78,206.76,333.65,213.84Z"/><path class="cls-6" d="M373.08,256a117.11,117.11,0,0,1-4.31,31.58h-41c-11.49,30.82-39.28,52.55-71.76,52.55s-60.25-21.73-71.75-52.55h-41a117.85,117.85,0,0,1,0-63.16h41c11.5-30.82,39.28-52.55,71.75-52.55s60.27,21.73,71.76,52.55h41A117.11,117.11,0,0,1,373.08,256Z"/><ellipse class="cls-7" cx="256.02" cy="256" rx="56.12" ry="61"/><ellipse class="cls-8" cx="256.02" cy="256" rx="41.9" ry="45.53"/><rect class="cls-9" x="232.47" y="229.74" width="46.55" height="12.34" rx="6.17"/><rect class="cls-9" x="217.19" y="251.99" width="77.11" height="12.34" rx="6.17"/><ellipse class="cls-10" cx="346.71" cy="251.18" rx="13.36" ry="23.76" transform="translate(-48.92 87.54) rotate(-13.45)"/><path class="cls-10" d="M324.51,216.81c-8.55-.16-19.53-6.15-28.4-16.33-6.48-7.43-10.58-15.66-11.94-22.87C301.56,185,315.88,199,324.51,216.81Z"/></svg>